<svg xmlns="http://www.w3.org/2000/svg" xmlns:xlink="http://www.w3.org/1999/xlink" version="1.1" style="shape-rendering:geometricPrecision; text-rendering:geometricPrecision; image-rendering:optimizeQuality; fill-rule:evenodd; clip-rule:evenodd" viewBox="-0.5 -0.5 1920 1080">
<g><path style="opacity:1" fill="#fffefe" d="M -0.5,-0.5 C 639.5,-0.5 1279.5,-0.5 1919.5,-0.5C 1919.5,359.5 1919.5,719.5 1919.5,1079.5C 1279.5,1079.5 639.5,1079.5 -0.5,1079.5C -0.5,719.5 -0.5,359.5 -0.5,-0.5 Z"/></g>
<g><path style="opacity:1" fill="#fae58a" d="M 1252.5,813.5 C 1252.5,631.167 1252.5,448.833 1252.5,266.5C 1057.17,266.5 861.833,266.5 666.5,266.5C 666.5,448.833 666.5,631.167 666.5,813.5C 665.5,631.001 665.167,448.334 665.5,265.5C 861.5,265.5 1057.5,265.5 1253.5,265.5C 1253.83,448.334 1253.5,631.001 1252.5,813.5 Z"/></g>
<g><path style="opacity:1" fill="#f8d539" d="M 1252.5,813.5 C 1057.17,813.5 861.833,813.5 666.5,813.5C 666.5,631.167 666.5,448.833 666.5,266.5C 861.833,266.5 1057.17,266.5 1252.5,266.5C 1252.5,448.833 1252.5,631.167 1252.5,813.5 Z"/></g>
<g><path style="opacity:1" fill="#fceca8" d="M 977.5,301.5 C 972.341,301.182 967.341,301.848 962.5,303.5C 963.058,302.21 964.058,301.377 965.5,301C 969.689,300.188 973.689,300.355 977.5,301.5 Z"/></g>
<g><path style="opacity:1" fill="#fefefc" d="M 977.5,301.5 C 985.459,303.628 990.459,308.628 992.5,316.5C 992.5,319.5 992.5,322.5 992.5,325.5C 987.5,325.5 982.5,325.5 977.5,325.5C 977.784,323.585 977.451,321.919 976.5,320.5C 974.678,317.5 972.178,316.833 969,318.5C 968.333,326.5 968.333,334.5 969,342.5C 972.5,345.333 976,348.167 979.5,351C 989.318,348.402 999.318,346.235 1009.5,344.5C 1009.5,345.5 1009.5,346.5 1009.5,347.5C 1006.53,353.085 1004.53,359.085 1003.5,365.5C 1002.66,365.842 1002.33,366.508 1002.5,367.5C 1000.72,370.505 999.723,373.838 999.5,377.5C 988.229,410.145 977.063,442.812 966,475.5C 961.959,480.313 957.625,480.646 953,476.5C 949.003,466.676 945.503,456.676 942.5,446.5C 941.072,440.216 939.072,434.216 936.5,428.5C 936.5,428.167 936.5,427.833 936.5,427.5C 935.538,423.605 934.204,419.939 932.5,416.5C 924.426,392.612 916.759,368.612 909.5,344.5C 918.31,346.577 927.143,348.577 936,350.5C 941.4,348.791 946.066,345.791 950,341.5C 950.085,332.425 950.752,323.425 952,314.5C 954.167,309.449 957.667,305.782 962.5,303.5C 967.341,301.848 972.341,301.182 977.5,301.5 Z"/></g>
<g><path style="opacity:1" fill="#fdf5d1" d="M 992.5,316.5 C 993.479,319.625 993.813,322.958 993.5,326.5C 987.833,326.5 982.167,326.5 976.5,326.5C 976.5,324.5 976.5,322.5 976.5,320.5C 977.451,321.919 977.784,323.585 977.5,325.5C 982.5,325.5 987.5,325.5 992.5,325.5C 992.5,322.5 992.5,319.5 992.5,316.5 Z"/></g>
<g><path style="opacity:1" fill="#fae381" d="M 1009.5,347.5 C 1008.08,353.767 1006.08,359.767 1003.5,365.5C 1004.53,359.085 1006.53,353.085 1009.5,347.5 Z"/></g>
<g><path style="opacity:1" fill="#fbeba4" d="M 969.5,364.5 C 968.339,380.328 968.172,396.328 969,412.5C 969.9,409.282 971.067,406.282 972.5,403.5C 972.041,406.877 971.374,410.211 970.5,413.5C 969.5,413.5 968.5,413.5 967.5,413.5C 967.167,396.82 967.501,380.153 968.5,363.5C 969.107,363.624 969.44,363.957 969.5,364.5 Z"/></g>
<g><path style="opacity:1" fill="#f8d643" d="M 949.5,364.5 C 950.833,380.833 950.833,397.167 949.5,413.5C 944.363,398.61 939.696,383.61 935.5,368.5C 938.141,369.263 940.808,369.43 943.5,369C 945.095,366.898 947.095,365.398 949.5,364.5 Z"/></g>
<g><path style="opacity:1" fill="#f8d63f" d="M 969.5,364.5 C 971.649,365.748 973.649,367.248 975.5,369C 978.157,369.175 980.824,369.008 983.5,368.5C 979.988,380.213 976.322,391.879 972.5,403.5C 971.067,406.282 969.9,409.282 969,412.5C 968.172,396.328 968.339,380.328 969.5,364.5 Z"/></g>
<g><path style="opacity:1" fill="#fdf3c8" d="M 949.5,364.5 C 949.56,363.957 949.893,363.624 950.5,363.5C 951.833,380.833 951.833,398.167 950.5,415.5C 949.702,415.043 949.369,414.376 949.5,413.5C 950.833,397.167 950.833,380.833 949.5,364.5 Z"/></g>
<g><path style="opacity:1" fill="#fbe68f" d="M 1002.5,367.5 C 1002.28,371.162 1001.28,374.495 999.5,377.5C 999.723,373.838 1000.72,370.505 1002.5,367.5 Z"/></g>
<g><path style="opacity:1" fill="#fbe790" d="M 932.5,416.5 C 934.204,419.939 935.538,423.605 936.5,427.5C 934.01,424.374 932.677,420.708 932.5,416.5 Z"/></g>
<g><path style="opacity:1" fill="#fbe897" d="M 936.5,428.5 C 939.072,434.216 941.072,440.216 942.5,446.5C 939.527,440.915 937.527,434.915 936.5,428.5 Z"/></g>
<g><path style="opacity:1" fill="#fae37e" d="M 758.5,555.5 C 762.311,554.355 766.311,554.188 770.5,555C 772.32,555.2 773.653,556.034 774.5,557.5C 769.324,555.816 763.991,555.15 758.5,555.5 Z"/></g>
<g><path style="opacity:1" fill="#fbecaa" d="M 731.5,556.5 C 736.64,555.512 741.974,555.179 747.5,555.5C 747.5,558.833 747.5,562.167 747.5,565.5C 746.523,562.713 746.19,559.713 746.5,556.5C 741.5,556.5 736.5,556.5 731.5,556.5 Z"/></g>
<g><path style="opacity:1" fill="#fffdf9" d="M 758.5,555.5 C 763.991,555.15 769.324,555.816 774.5,557.5C 781.832,561.338 786.332,567.338 788,575.5C 790.862,588.819 788.029,600.652 779.5,611C 771.72,616.918 763.387,617.918 754.5,614C 752.598,612.27 750.931,610.437 749.5,608.5C 749.5,608.167 749.5,607.833 749.5,607.5C 749.189,606.522 748.522,605.855 747.5,605.5C 746.501,616.146 746.168,626.813 746.5,637.5C 741.167,637.5 735.833,637.5 730.5,637.5C 730.169,610.328 730.502,583.328 731.5,556.5C 736.5,556.5 741.5,556.5 746.5,556.5C 746.19,559.713 746.523,562.713 747.5,565.5C 749.917,560.748 753.583,557.415 758.5,555.5 Z"/></g>
<g><path style="opacity:1" fill="#fefdfa" d="M 806.5,573.5 C 804.5,572.833 802.5,572.167 800.5,571.5C 802.793,562.71 808.459,557.543 817.5,556C 826.631,554.601 835.298,555.935 843.5,560C 846.04,562.205 848.207,564.705 850,567.5C 850.5,583.497 850.667,599.497 850.5,615.5C 845.5,615.5 840.5,615.5 835.5,615.5C 835.664,612.813 835.497,610.146 835,607.5C 828.002,616.379 819.168,618.879 808.5,615C 801.181,611.542 797.515,605.708 797.5,597.5C 798.233,590.924 801.566,586.091 807.5,583C 815.271,581.206 823.104,579.706 831,578.5C 834.517,576.787 835.351,574.121 833.5,570.5C 829.685,567.576 825.351,566.742 820.5,568C 818.36,568.973 816.693,570.473 815.5,572.5C 812.572,573.484 809.572,573.817 806.5,573.5 Z"/></g>
<g><path style="opacity:1" fill="#fae381" d="M 875.5,556.5 C 869.402,555.883 863.735,556.55 858.5,558.5C 857.596,557.791 857.263,556.791 857.5,555.5C 863.69,555.177 869.69,555.51 875.5,556.5 Z"/></g>
<g><path style="opacity:1" fill="#fefefd" d="M 1117.5,571.5 C 1117.5,585.833 1117.5,600.167 1117.5,614.5C 1112.5,614.5 1107.5,614.5 1102.5,614.5C 1102.83,601.323 1102.5,588.323 1101.5,575.5C 1097.74,569.191 1092.41,567.358 1085.5,570C 1082.8,571.857 1081.13,574.357 1080.5,577.5C 1079.5,589.655 1079.17,601.989 1079.5,614.5C 1074.5,614.5 1069.5,614.5 1064.5,614.5C 1064.5,595.167 1064.5,575.833 1064.5,556.5C 1069.17,556.5 1073.83,556.5 1078.5,556.5C 1078.18,559.898 1078.51,563.232 1079.5,566.5C 1080.11,566.376 1080.44,566.043 1080.5,565.5C 1085.48,556.475 1093.15,553.309 1103.5,556C 1111.55,558.212 1116.22,563.378 1117.5,571.5 Z"/></g>
<g><path style="opacity:1" fill="#fefefb" d="M 1169.5,563.5 C 1169.37,564.376 1169.7,565.043 1170.5,565.5C 1171.48,562.572 1171.82,559.572 1171.5,556.5C 1176.5,556.5 1181.5,556.5 1186.5,556.5C 1186.8,579.2 1186.47,601.866 1185.5,624.5C 1183.34,630.154 1179.34,633.988 1173.5,636C 1161.84,639.933 1150.51,639.267 1139.5,634C 1135.42,630.663 1132.76,626.497 1131.5,621.5C 1135.52,621.497 1139.52,621.164 1143.5,620.5C 1144.83,620.833 1146.17,621.167 1147.5,621.5C 1150.02,625.59 1153.68,627.256 1158.5,626.5C 1164.56,626.812 1168.56,624.145 1170.5,618.5C 1171.65,614.019 1171.82,609.352 1171,604.5C 1170.28,605.044 1169.78,605.711 1169.5,606.5C 1163.91,613.783 1156.58,616.283 1147.5,614C 1139.98,611.646 1134.98,606.813 1132.5,599.5C 1130.68,591.644 1130.01,583.644 1130.5,575.5C 1134.67,559.078 1145.01,552.911 1161.5,557C 1164.94,558.274 1167.6,560.441 1169.5,563.5 Z"/></g>
<g><path style="opacity:1" fill="#fefefa" d="M 875.5,556.5 C 875.5,556.833 875.5,557.167 875.5,557.5C 875.41,560.152 876.076,562.485 877.5,564.5C 880.521,575.917 883.855,587.25 887.5,598.5C 892.119,584.646 896.119,570.646 899.5,556.5C 905.509,556.334 911.509,556.501 917.5,557C 915.006,562.316 913.006,567.816 911.5,573.5C 910.129,575.936 909.129,578.603 908.5,581.5C 903.704,598.351 897.537,614.684 890,630.5C 882.04,637.407 872.873,639.407 862.5,636.5C 862.883,632.681 863.883,629.014 865.5,625.5C 872.787,626.578 877.12,623.578 878.5,616.5C 872.422,596.93 865.755,577.597 858.5,558.5C 863.735,556.55 869.402,555.883 875.5,556.5 Z"/></g>
<g><path style="opacity:1" fill="#fceeb3" d="M 943.5,592.5 C 942.505,580.678 942.172,568.678 942.5,556.5C 937.5,556.5 932.5,556.5 927.5,556.5C 927.5,570.5 927.5,584.5 927.5,598.5C 926.504,584.343 926.171,570.01 926.5,555.5C 932.167,555.5 937.833,555.5 943.5,555.5C 943.5,567.833 943.5,580.167 943.5,592.5 Z"/></g>
<g><path style="opacity:1" fill="#fefefd" d="M 943.5,592.5 C 945.986,601.534 951.653,604.034 960.5,600C 963.024,598.117 964.358,595.617 964.5,592.5C 965.495,580.678 965.828,568.678 965.5,556.5C 970.5,556.5 975.5,556.5 980.5,556.5C 980.5,575.833 980.5,595.167 980.5,614.5C 975.833,614.5 971.167,614.5 966.5,614.5C 966.82,611.102 966.487,607.768 965.5,604.5C 964.893,604.624 964.56,604.957 964.5,605.5C 957.686,616.269 948.353,619.102 936.5,614C 931.291,610.077 928.291,604.91 927.5,598.5C 927.5,584.5 927.5,570.5 927.5,556.5C 932.5,556.5 937.5,556.5 942.5,556.5C 942.172,568.678 942.505,580.678 943.5,592.5 Z"/></g>
<g><path style="opacity:1" fill="#fbeba6" d="M 981.5,556.5 C 981.167,556.5 980.833,556.5 980.5,556.5C 975.5,556.5 970.5,556.5 965.5,556.5C 965.828,568.678 965.495,580.678 964.5,592.5C 964.5,580.167 964.5,567.833 964.5,555.5C 970.358,555.178 976.025,555.511 981.5,556.5 Z"/></g>
<g><path style="opacity:1" fill="#fdf5d3" d="M 980.5,556.5 C 980.833,556.5 981.167,556.5 981.5,556.5C 981.5,576.167 981.5,595.833 981.5,615.5C 976.167,615.5 970.833,615.5 965.5,615.5C 965.813,611.958 965.479,608.625 964.5,605.5C 964.56,604.957 964.893,604.624 965.5,604.5C 966.487,607.768 966.82,611.102 966.5,614.5C 971.167,614.5 975.833,614.5 980.5,614.5C 980.5,595.167 980.5,575.833 980.5,556.5 Z"/></g>
<g><path style="opacity:1" fill="#fefefc" d="M 1019.5,615.5 C 1015.13,615.533 1010.8,615.2 1006.5,614.5C 1001.33,611.198 997.832,606.531 996,600.5C 995.5,585.837 995.333,571.17 995.5,556.5C 1000.83,556.5 1006.17,556.5 1011.5,556.5C 1011.33,569.171 1011.5,581.838 1012,594.5C 1013.38,599.392 1016.55,601.725 1021.5,601.5C 1027.39,601.771 1031.23,599.105 1033,593.5C 1033.5,581.171 1033.67,568.838 1033.5,556.5C 1038.83,556.5 1044.17,556.5 1049.5,556.5C 1049.5,576.167 1049.5,595.833 1049.5,615.5C 1044.17,615.5 1038.83,615.5 1033.5,615.5C 1034.38,606.229 1032.72,605.063 1028.5,612C 1025.69,613.741 1022.69,614.908 1019.5,615.5 Z"/></g>
<g><path style="opacity:1" fill="#fcf2c6" d="M 1080.5,565.5 C 1080.44,566.043 1080.11,566.376 1079.5,566.5C 1078.51,563.232 1078.18,559.898 1078.5,556.5C 1073.83,556.5 1069.17,556.5 1064.5,556.5C 1064.5,575.833 1064.5,595.167 1064.5,614.5C 1069.5,614.5 1074.5,614.5 1079.5,614.5C 1079.17,601.989 1079.5,589.655 1080.5,577.5C 1080.5,590.167 1080.5,602.833 1080.5,615.5C 1074.83,615.5 1069.17,615.5 1063.5,615.5C 1063.5,595.5 1063.5,575.5 1063.5,555.5C 1068.83,555.5 1074.17,555.5 1079.5,555.5C 1079.19,559.042 1079.52,562.375 1080.5,565.5 Z"/></g>
<g><path style="opacity:1" fill="#fdf7de" d="M 1186.5,556.5 C 1187.5,577.327 1187.83,598.327 1187.5,619.5C 1187.6,621.553 1186.93,623.22 1185.5,624.5C 1186.47,601.866 1186.8,579.2 1186.5,556.5 Z"/></g>
<g><path style="opacity:1" fill="#fae586" d="M 1187.5,619.5 C 1187.83,598.327 1187.5,577.327 1186.5,556.5C 1181.5,556.5 1176.5,556.5 1171.5,556.5C 1171.82,559.572 1171.48,562.572 1170.5,565.5C 1169.7,565.043 1169.37,564.376 1169.5,563.5C 1170.47,561.052 1170.81,558.385 1170.5,555.5C 1176.5,555.5 1182.5,555.5 1188.5,555.5C 1188.83,577.007 1188.5,598.34 1187.5,619.5 Z"/></g>
<g><path style="opacity:1" fill="#fceba6" d="M 875.5,557.5 C 876.924,559.515 877.59,561.848 877.5,564.5C 876.076,562.485 875.41,560.152 875.5,557.5 Z"/></g>
<g><path style="opacity:1" fill="#f8d53e" d="M 754.5,568.5 C 762.128,567.065 767.628,569.732 771,576.5C 772.414,584.559 771.414,592.225 768,599.5C 767.097,600.701 765.931,601.535 764.5,602C 757.264,604.299 752.097,602.132 749,595.5C 747.118,588.516 747.118,581.516 749,574.5C 751.04,572.63 752.873,570.63 754.5,568.5 Z"/></g>
<g><path style="opacity:1" fill="#f8d63f" d="M 1154.5,568.5 C 1163.32,567.319 1168.82,570.985 1171,579.5C 1172.21,585.886 1171.21,591.886 1168,597.5C 1157.88,604.607 1150.88,602.274 1147,590.5C 1144.74,581.388 1147.24,574.055 1154.5,568.5 Z"/></g>
<g><path style="opacity:1" fill="#fcedb1" d="M 800.5,571.5 C 802.5,572.167 804.5,572.833 806.5,573.5C 804.076,573.808 801.743,573.474 799.5,572.5C 799.624,571.893 799.957,571.56 800.5,571.5 Z"/></g>
<g><path style="opacity:1" fill="#fbe58a" d="M 911.5,573.5 C 911.655,576.716 910.655,579.383 908.5,581.5C 909.129,578.603 910.129,575.936 911.5,573.5 Z"/></g>
<g><path style="opacity:1" fill="#fcf3c8" d="M 1117.5,571.5 C 1118.5,585.99 1118.83,600.657 1118.5,615.5C 1112.83,615.5 1107.17,615.5 1101.5,615.5C 1101.5,602.167 1101.5,588.833 1101.5,575.5C 1102.5,588.323 1102.83,601.323 1102.5,614.5C 1107.5,614.5 1112.5,614.5 1117.5,614.5C 1117.5,600.167 1117.5,585.833 1117.5,571.5 Z"/></g>
<g><path style="opacity:1" fill="#f8d643" d="M 818.5,591.5 C 822.36,591.192 826.026,590.525 829.5,589.5C 830.919,588.549 832.585,588.216 834.5,588.5C 835.372,600.794 829.705,605.961 817.5,604C 813.875,601.794 812.708,598.627 814,594.5C 815.129,592.859 816.629,591.859 818.5,591.5 Z"/></g>
<g><path style="opacity:1" fill="#fbe899" d="M 829.5,589.5 C 826.026,590.525 822.36,591.192 818.5,591.5C 821.845,589.783 825.511,589.116 829.5,589.5 Z"/></g>
<g><path style="opacity:1" fill="#fbe999" d="M 1130.5,575.5 C 1130.01,583.644 1130.68,591.644 1132.5,599.5C 1131.03,598.653 1130.2,597.32 1130,595.5C 1129.18,588.654 1129.35,581.987 1130.5,575.5 Z"/></g>
<g><path style="opacity:1" fill="#fdf6d7" d="M 749.5,607.5 C 747.526,617.111 746.859,627.111 747.5,637.5C 747.167,637.5 746.833,637.5 746.5,637.5C 746.168,626.813 746.501,616.146 747.5,605.5C 748.522,605.855 749.189,606.522 749.5,607.5 Z"/></g>
<g><path style="opacity:1" fill="#fae278" d="M 749.5,607.5 C 749.5,607.833 749.5,608.167 749.5,608.5C 748.833,618.167 748.167,627.833 747.5,637.5C 746.859,627.111 747.526,617.111 749.5,607.5 Z"/></g>
<g><path style="opacity:1" fill="#fae68a" d="M 1170.5,618.5 C 1170.82,614.298 1170.48,610.298 1169.5,606.5C 1169.78,605.711 1170.28,605.044 1171,604.5C 1171.82,609.352 1171.65,614.019 1170.5,618.5 Z"/></g>
<g><path style="opacity:1" fill="#fcefb9" d="M 1006.5,614.5 C 1010.8,615.2 1015.13,615.533 1019.5,615.5C 1018.04,616.16 1016.37,616.493 1014.5,616.5C 1011.51,616.618 1008.85,615.952 1006.5,614.5 Z"/></g>
<g><path style="opacity:1" fill="#fefbed" d="M 825.5,668.5 C 831.643,669.026 832.976,671.86 829.5,677C 825.15,677.645 822.983,675.812 823,671.5C 823.698,670.309 824.531,669.309 825.5,668.5 Z"/></g>
<g><path style="opacity:1" fill="#fefaea" d="M 943.5,668.5 C 950.896,668.615 952.23,671.448 947.5,677C 941.254,676.705 939.921,673.872 943.5,668.5 Z"/></g>
<g><path style="opacity:1" fill="#fffcf4" d="M 846.5,670.5 C 846.173,675.544 846.506,680.544 847.5,685.5C 848.522,685.145 849.189,684.478 849.5,683.5C 850.512,681.124 852.345,680.124 855,680.5C 864.152,680.988 868.319,685.821 867.5,695C 867.315,709.496 860.815,713.663 848,707.5C 847.517,708.448 847.351,709.448 847.5,710.5C 844.5,710.5 841.5,710.5 838.5,710.5C 838.5,697.167 838.5,683.833 838.5,670.5C 841.167,670.5 843.833,670.5 846.5,670.5 Z"/></g>
<g><path style="opacity:1" fill="#fcf0bb" d="M 846.5,670.5 C 846.865,675.094 847.865,679.427 849.5,683.5C 849.189,684.478 848.522,685.145 847.5,685.5C 846.506,680.544 846.173,675.544 846.5,670.5 Z"/></g>
<g><path style="opacity:1" fill="#fae482" d="M 926.5,670.5 C 926.666,675.511 926.499,680.511 926,685.5C 925.283,684.956 924.783,684.289 924.5,683.5C 925.167,679.167 925.833,674.833 926.5,670.5 Z"/></g>
<g><path style="opacity:1" fill="#fefdf7" d="M 926.5,670.5 C 929.167,670.5 931.833,670.5 934.5,670.5C 934.5,683.833 934.5,697.167 934.5,710.5C 931.833,710.5 929.167,710.5 926.5,710.5C 926.66,708.801 926.494,707.134 926,705.5C 925.215,707.286 924.049,708.786 922.5,710C 913.561,712.618 908.061,709.451 906,700.5C 902.979,689.858 906.646,683.191 917,680.5C 919.922,680.548 922.422,681.548 924.5,683.5C 924.783,684.289 925.283,684.956 926,685.5C 926.499,680.511 926.666,675.511 926.5,670.5 Z"/></g>
<g><path style="opacity:1" fill="#fefefc" d="M 1043.5,670.5 C 1046.17,670.5 1048.83,670.5 1051.5,670.5C 1051.5,683.833 1051.5,697.167 1051.5,710.5C 1048.83,710.5 1046.17,710.5 1043.5,710.5C 1043.5,697.167 1043.5,683.833 1043.5,670.5 Z"/></g>
<g><path style="opacity:1" fill="#fbe99b" d="M 765.5,680.5 C 765.5,693.833 765.5,707.167 765.5,720.5C 768.167,720.5 770.833,720.5 773.5,720.5C 770.713,721.477 767.713,721.81 764.5,721.5C 764.171,707.656 764.504,693.99 765.5,680.5 Z"/></g>
<g><path style="opacity:1" fill="#fefdf8" d="M 765.5,680.5 C 768.167,680.5 770.833,680.5 773.5,680.5C 773.367,685.272 774.7,685.438 777.5,681C 788.456,679.291 793.789,683.957 793.5,695C 794.191,706.646 788.858,711.646 777.5,710C 776.333,708.833 775.167,707.667 774,706.5C 773.501,711.155 773.334,715.821 773.5,720.5C 770.833,720.5 768.167,720.5 765.5,720.5C 765.5,707.167 765.5,693.833 765.5,680.5 Z"/></g>
<g><path style="opacity:1" fill="#fefdf7" d="M 800.5,680.5 C 803.167,680.5 805.833,680.5 808.5,680.5C 808.351,681.552 808.517,682.552 809,683.5C 811.642,680.971 814.808,679.971 818.5,680.5C 818.5,682.833 818.5,685.167 818.5,687.5C 814.713,686.814 811.546,687.814 809,690.5C 808.5,697.158 808.334,703.825 808.5,710.5C 805.833,710.5 803.167,710.5 800.5,710.5C 800.5,700.5 800.5,690.5 800.5,680.5 Z"/></g>
<g><path style="opacity:1" fill="#fefefc" d="M 823.5,680.5 C 826.167,680.5 828.833,680.5 831.5,680.5C 831.5,690.5 831.5,700.5 831.5,710.5C 828.833,710.5 826.167,710.5 823.5,710.5C 823.5,700.5 823.5,690.5 823.5,680.5 Z"/></g>
<g><path style="opacity:1" fill="#fefcf5" d="M 876.5,695.5 C 881.371,694.44 886.038,693.107 890.5,691.5C 891.245,688.07 889.911,686.403 886.5,686.5C 884.312,686.307 882.645,687.141 881.5,689C 879.19,689.497 876.857,689.663 874.5,689.5C 875.713,682.39 880.047,679.39 887.5,680.5C 892.521,680.26 896.354,682.26 899,686.5C 899.5,694.493 899.666,702.493 899.5,710.5C 896.833,710.5 894.167,710.5 891.5,710.5C 891.657,709.127 891.49,707.793 891,706.5C 890.167,708 889,709.167 887.5,710C 879.403,712.736 874.403,710.07 872.5,702C 872.707,699.076 874.04,696.91 876.5,695.5 Z"/></g>
<g><path style="opacity:1" fill="#fffbef" d="M 941.5,680.5 C 944.5,680.5 947.5,680.5 950.5,680.5C 950.5,690.5 950.5,700.5 950.5,710.5C 947.5,710.5 944.5,710.5 941.5,710.5C 941.5,700.5 941.5,690.5 941.5,680.5 Z"/></g>
<g><path style="opacity:1" fill="#fefcf4" d="M 1018.5,680.5 C 1025.55,679.111 1031.39,681.111 1036,686.5C 1036.49,688.134 1036.66,689.801 1036.5,691.5C 1032.73,692.074 1029.73,690.907 1027.5,688C 1020.93,685.908 1017.93,688.241 1018.5,695C 1017.57,701.566 1020.24,704.566 1026.5,704C 1027.74,702.846 1028.74,701.512 1029.5,700C 1031.81,699.503 1034.14,699.337 1036.5,699.5C 1036.36,704.47 1034.03,707.97 1029.5,710C 1013.89,712.053 1007.39,705.219 1010,689.5C 1011.69,685.315 1014.52,682.315 1018.5,680.5 Z"/></g>
<g><path style="opacity:1" fill="#fefdf6" d="M 1066.5,680.5 C 1084.28,679.766 1090.45,687.766 1085,704.5C 1080.12,710.22 1073.95,712.053 1066.5,710C 1058.89,704.792 1056.39,697.626 1059,688.5C 1061.03,685.308 1063.53,682.641 1066.5,680.5 Z"/></g>
<g><path style="opacity:1" fill="#fefdf8" d="M 1103.5,688.5 C 1102.88,688.611 1102.38,688.944 1102,689.5C 1101.5,696.492 1101.33,703.492 1101.5,710.5C 1098.83,710.5 1096.17,710.5 1093.5,710.5C 1093.5,700.5 1093.5,690.5 1093.5,680.5C 1096.17,680.5 1098.83,680.5 1101.5,680.5C 1101.97,684.157 1103.31,684.324 1105.5,681C 1110.71,679.706 1115.21,680.872 1119,684.5C 1120.44,693.058 1120.94,701.724 1120.5,710.5C 1117.83,710.5 1115.17,710.5 1112.5,710.5C 1112.67,703.825 1112.5,697.158 1112,690.5C 1111.63,689.584 1111.13,688.75 1110.5,688C 1107.96,687.204 1105.63,687.371 1103.5,688.5 Z"/></g>
<g><path style="opacity:1" fill="#fefcf5" d="M 1135.5,680.5 C 1148.56,678.906 1154.9,684.573 1154.5,697.5C 1147.83,697.5 1141.17,697.5 1134.5,697.5C 1134.44,700.561 1135.78,702.728 1138.5,704C 1143.58,702.557 1148.91,701.723 1154.5,701.5C 1153.42,705.745 1150.76,708.578 1146.5,710C 1136.27,713.137 1129.77,709.637 1127,699.5C 1124.66,690.722 1127.49,684.389 1135.5,680.5 Z"/></g>
<g><path style="opacity:1" fill="#f8d744" d="M 777.5,687.5 C 782.674,687.009 785.34,689.342 785.5,694.5C 785.886,699.408 783.886,702.741 779.5,704.5C 776.129,703.96 774.295,701.96 774,698.5C 772.676,693.788 773.842,690.122 777.5,687.5 Z"/></g>
<g><path style="opacity:1" fill="#f8d746" d="M 849.5,687.5 C 857.748,686.632 860.915,690.298 859,698.5C 857.957,703.223 855.124,705.056 850.5,704C 849.299,703.097 848.465,701.931 848,700.5C 846.978,695.871 847.478,691.538 849.5,687.5 Z"/></g>
<g><path style="opacity:1" fill="#f8d748" d="M 916.5,687.5 C 924.748,686.632 927.915,690.298 926,698.5C 924.957,703.223 922.124,705.056 917.5,704C 912.667,698.7 912.334,693.2 916.5,687.5 Z"/></g>
<g><path style="opacity:1" fill="#f8d746" d="M 1069.5,686.5 C 1076.94,687.016 1079.78,691.016 1078,698.5C 1075.28,705.513 1071.61,706.18 1067,700.5C 1065.81,695.369 1066.64,690.702 1069.5,686.5 Z"/></g>
<g><path style="opacity:1" fill="#f9d951" d="M 1137.5,686.5 C 1142.71,685.396 1145.71,687.396 1146.5,692.5C 1142.5,692.5 1138.5,692.5 1134.5,692.5C 1134.62,690.053 1135.62,688.053 1137.5,686.5 Z"/></g>
<g><path style="opacity:1" fill="#fceeb3" d="M 890.5,691.5 C 886.038,693.107 881.371,694.44 876.5,695.5C 877.058,694.21 878.058,693.377 879.5,693C 883.17,692.452 886.837,691.952 890.5,691.5 Z"/></g>
<g><path style="opacity:1" fill="#fefdfa" d="M 971.5,691.5 C 977.5,691.5 983.5,691.5 989.5,691.5C 989.5,693.5 989.5,695.5 989.5,697.5C 983.5,697.5 977.5,697.5 971.5,697.5C 971.5,695.5 971.5,693.5 971.5,691.5 Z"/></g>
<g><path style="opacity:1" fill="#f9e072" d="M 1103.5,688.5 C 1102.9,695.965 1102.23,703.298 1101.5,710.5C 1101.33,703.492 1101.5,696.492 1102,689.5C 1102.38,688.944 1102.88,688.611 1103.5,688.5 Z"/></g>
<g><path style="opacity:1" fill="#fbedac" d="M 887.5,697.5 C 888.568,696.566 889.901,696.232 891.5,696.5C 891.784,698.415 891.451,700.081 890.5,701.5C 890.5,700.167 890.5,698.833 890.5,697.5C 889.5,697.5 888.5,697.5 887.5,697.5 Z"/></g>
<g><path style="opacity:1" fill="#f8d84a" d="M 887.5,697.5 C 888.5,697.5 889.5,697.5 890.5,697.5C 890.5,698.833 890.5,700.167 890.5,701.5C 890.047,702.458 889.381,703.292 888.5,704C 885.901,704.769 883.401,704.602 881,703.5C 880.479,698.964 882.645,696.964 887.5,697.5 Z"/></g>
</svg>